<svg width="512" height="122" viewBox="0 0 512 122" fill="none" xmlns="http://www.w3.org/2000/svg">
    <g clip-path="url(#clip0_814_872)">
        <path d="M169 -0.393066C197.786 -0.393066 226.571 -0.393066 256.229 -0.393066C256.622 0.781456 256.98 1.871 257.263 3.06169C257.332 3.34719 257.4 3.63269 257.47 3.92684C257.543 4.2358 257.616 4.54477 257.691 4.8631C257.81 5.36136 257.81 5.36136 257.931 5.86969C258.195 6.98097 258.458 8.0926 258.72 9.20427C258.812 9.59197 258.904 9.97967 258.998 10.3791C261.126 19.3658 263.185 28.3679 265.244 37.3703C266.368 42.2847 267.504 47.1966 268.643 52.1076C268.728 52.4735 268.813 52.8394 268.901 53.2164C269.359 55.192 269.818 57.1675 270.277 59.1429C270.871 56.4593 271.462 53.7752 272.053 51.0909C272.124 50.7682 272.124 50.7682 272.197 50.439C273.754 43.3677 275.292 36.2924 276.822 29.2151C276.961 28.5717 277.1 27.9282 277.24 27.2847C278.128 23.1744 279.016 19.0641 279.903 14.9534C280.304 13.0934 280.706 11.2335 281.107 9.37369C281.275 8.59616 281.443 7.81859 281.61 7.04098C281.841 5.96975 282.072 4.89866 282.304 3.82761C282.372 3.5109 282.44 3.1942 282.51 2.8679C282.573 2.57915 282.635 2.2904 282.7 1.9929C282.754 1.74254 282.808 1.49219 282.863 1.23425C283.018 0.582934 283.018 0.582934 283.345 -0.393066C310.621 -0.393066 337.897 -0.393066 366 -0.393066C366 39.8669 366 80.1269 366 121.607C345.192 121.607 324.385 121.607 302.947 121.607C302.839 99.8129 302.731 78.0188 302.62 55.5643C298.868 71.3511 298.868 71.3511 295.116 87.1381C295.061 87.3701 295.006 87.602 294.949 87.8409C292.275 99.0954 289.606 110.351 286.939 121.607C273.031 121.607 259.123 121.607 244.794 121.607C240.668 105.172 240.668 105.172 239.118 98.521C238.941 97.7676 238.765 97.0143 238.588 96.261C238.133 94.3214 237.679 92.3815 237.226 90.4415C236.502 87.3439 235.776 84.2467 235.05 81.1495C234.805 80.1046 234.561 79.0596 234.317 78.0145C232.613 70.7402 230.857 63.48 229.113 56.2149C228.951 88.584 228.951 88.584 228.786 121.607C209.057 121.607 189.327 121.607 169 121.607C169 81.3469 169 41.0869 169 -0.393066Z" fill="#000000"/>
        <path d="M0 -0.26538C31.1197 -0.304702 31.1197 -0.304702 44.135 -0.312986C47.1139 -0.314895 50.0927 -0.316865 53.0715 -0.318937C53.4448 -0.319194 53.8182 -0.319451 54.2028 -0.319716C60.2202 -0.32395 66.2377 -0.331633 72.2551 -0.340602C78.4362 -0.349737 84.6173 -0.355139 90.7983 -0.357114C94.6087 -0.358448 98.419 -0.362653 102.229 -0.370596C104.846 -0.375772 107.464 -0.377302 110.081 -0.376041C111.588 -0.37542 113.095 -0.376334 114.602 -0.381602C128.595 -0.4281 128.595 -0.4281 134.963 1.58302C135.231 1.66563 135.498 1.74824 135.774 1.83335C138.462 2.69934 140.945 3.86521 143.393 5.2595C143.593 5.37303 143.793 5.48656 143.999 5.60353C152.079 10.28 157.895 17.6829 160.478 26.6354C162.807 35.816 161.036 45.1 156.291 53.218C150.661 62.4846 141.041 68.5542 130.625 71.233C126.927 72.0804 123.284 72.5444 119.494 72.858C126.192 72.9653 132.89 73.0725 139.792 73.183C143.656 80.4708 143.656 80.4708 144.927 82.8922C145.088 83.1975 145.248 83.5028 145.414 83.8173C147.066 86.9648 148.708 90.1176 150.349 93.2706C150.453 93.4695 150.556 93.6684 150.663 93.8734C150.767 94.0723 150.87 94.2712 150.977 94.4761C152.62 97.6325 154.269 100.786 155.918 103.94C156.497 105.05 157.076 106.159 157.656 107.269C158.044 108.013 158.432 108.757 158.821 109.501C159.102 110.04 159.102 110.04 159.389 110.59C160.333 112.398 161.28 114.204 162.233 116.008C162.416 116.356 162.6 116.704 162.789 117.062C163.137 117.723 163.487 118.383 163.836 119.042C163.99 119.333 164.144 119.624 164.302 119.924C164.505 120.307 164.505 120.307 164.712 120.698C165 121.282 165 121.282 165 121.607C139.179 121.607 113.359 121.607 86.756 121.607C85.0274 117.103 83.2988 112.598 81.5179 107.957C80.3861 105.012 79.2542 102.066 78.1213 99.1215C77.981 98.7568 77.8407 98.392 77.6961 98.0163C76.8234 95.7479 75.9504 93.4795 75.0773 91.2113C74.7864 90.4555 74.4955 89.6997 74.2046 88.9438C73.3632 86.7578 72.5215 84.5719 71.6792 82.3862C71.4193 81.7116 71.1595 81.037 70.8998 80.3623C70.5433 79.4362 70.1864 78.5103 69.8293 77.5844C69.724 77.3104 69.6186 77.0364 69.51 76.7541C69.0089 75.4379 69.0089 75.4379 68.4226 74.158C68.3146 89.8161 68.2065 105.474 68.0952 121.607C45.6238 121.607 23.1524 121.607 0 121.607C0 81.3891 0 41.1712 0 -0.26538ZM68.0952 49.4585C68.0644 50.1564 68.0568 50.8553 68.0581 51.5539C68.058 51.7727 68.058 51.9915 68.0579 52.2168C68.0582 52.9431 68.0607 53.6694 68.0633 54.3956C68.0639 54.8979 68.0643 55.4002 68.0647 55.9025C68.0659 57.227 68.0691 58.5515 68.0728 59.876C68.0761 61.2266 68.0776 62.5771 68.0793 63.9277C68.0828 66.5795 68.0884 69.2313 68.0952 71.883C70.5885 71.8982 73.0817 71.9097 75.575 71.9167C76.7332 71.9201 77.8913 71.9246 79.0494 71.9321C80.3855 71.9406 81.7215 71.9437 83.0576 71.9465C83.467 71.9499 83.8763 71.9532 84.2981 71.9567C88.9745 71.9573 93.2852 71.3716 97.0032 68.3449C98.9924 66.2604 100.029 63.5656 100.209 60.7152C100.092 57.4445 98.921 54.6806 96.5761 52.3936C92.6655 49.1158 88.1159 49.0825 83.2366 49.0904C82.8128 49.0901 82.389 49.0897 81.9524 49.0894C81.0621 49.089 80.1717 49.0896 79.2813 49.0912C78.1383 49.093 76.9952 49.0919 75.8521 49.09C74.7602 49.0886 73.6682 49.0896 72.5763 49.0904C72.1647 49.0897 71.7531 49.0891 71.3291 49.0884C70.9519 49.0894 70.5747 49.0904 70.1861 49.0915C69.6858 49.0919 69.6858 49.0919 69.1755 49.0923C68.4344 49.0495 68.4344 49.0495 68.0952 49.4585Z" fill="#000000"/>
        <path d="M373 -0.393066C418.546 -0.393066 464.092 -0.393066 511.019 -0.393066C511.019 13.1343 511.019 26.6617 511.019 40.5989C487.49 40.5989 463.962 40.5989 439.72 40.5989C439.72 43.605 439.72 46.6111 439.72 49.7083C462.385 49.7083 485.05 49.7083 508.402 49.7083C508.402 57.3308 508.402 64.9534 508.402 72.8069C485.737 72.8069 463.072 72.8069 439.72 72.8069C439.72 75.9204 439.72 79.0338 439.72 82.2416C463.572 82.2416 487.425 82.2416 512 82.2416C512 95.2322 512 108.223 512 121.607C466.13 121.607 420.26 121.607 373 121.607C373 81.3469 373 41.0869 373 -0.393066Z" fill="#000000"/>
    </g>
    <defs>
        <clipPath id="clip0_814_872">
            <rect width="512" height="122" fill="#000000"/>
        </clipPath>
    </defs>
</svg>

